<?xml version="1.0" encoding="UTF-8" standalone="no"?>
<!-- Created with Inkscape (http://www.inkscape.org/) -->

<svg
   width="210mm"
   height="297mm"
   viewBox="0 0 210 297"
   version="1.1"
   id="svg1"
   xml:space="preserve"
   inkscape:version="1.4 (e7c3feb1, 2024-10-09)"
   sodipodi:docname="black.svg"
   xmlns:inkscape="http://www.inkscape.org/namespaces/inkscape"
   xmlns:sodipodi="http://sodipodi.sourceforge.net/DTD/sodipodi-0.dtd"
   xmlns="http://www.w3.org/2000/svg"
   xmlns:svg="http://www.w3.org/2000/svg"><sodipodi:namedview
     id="namedview1"
     pagecolor="#ffffff"
     bordercolor="#000000"
     borderopacity="0.25"
     inkscape:showpageshadow="2"
     inkscape:pageopacity="0.0"
     inkscape:pagecheckerboard="0"
     inkscape:deskcolor="#d1d1d1"
     inkscape:document-units="mm"
     inkscape:zoom="0.51795434"
     inkscape:cx="152.5231"
     inkscape:cy="810.88228"
     inkscape:window-width="2560"
     inkscape:window-height="1387"
     inkscape:window-x="0"
     inkscape:window-y="25"
     inkscape:window-maximized="0"
     inkscape:current-layer="layer1" /><defs
     id="defs1" /><g
     inkscape:label="Layer 1"
     inkscape:groupmode="layer"
     id="layer1"><path id="bulb-fill"
       style="fill:#1c1c1c;stroke-width:2.0561;fill-opacity:1"
       d="m 99.981603,296.38554 c -7.908745,-0.79878 -16.949058,-4.92296 -23.187202,-10.57788 -6.422977,-5.82247 -12.305045,-15.54277 -13.934272,-23.02676 -0.688072,-3.16069 -0.742914,-3.22374 -4.23058,-4.86232 -9.808234,-4.60809 -14.858895,-14.02087 -14.899231,-27.76731 l -0.01156,-3.91686 H 165.57614 l -0.0129,3.91686 c -0.0403,13.74644 -5.09099,23.15922 -14.89923,27.76731 -3.48766,1.63858 -3.54252,1.70163 -4.23059,4.86232 -1.62922,7.48399 -7.51128,17.20429 -13.93423,23.02676 -5.91265,5.35987 -15.1122,9.71525 -21.90948,10.37271 -1.83284,0.17724 -3.98523,0.39541 -4.78312,0.48474 -0.79787,0.0893 -3.41978,-0.0363 -5.826467,-0.27957 z M 42.53593,205.48965 C 40.010604,193.18719 35.066176,183.41575 25.726023,172.269 8.964845,152.26587 0.62942753,129.64687 0.69766123,104.35198 0.73462923,90.642946 2.672268,79.396545 6.9917504,67.819816 16.240477,43.032109 35.093502,22.317881 59.020446,10.654772 89.948561,-4.4210486 127.8143,-2.9037597 157.56133,14.603302 c 27.68157,16.291483 45.85369,43.018551 50.69366,74.558976 1.02463,6.67712 1.16899,21.834672 0.2665,27.980762 -3.069,20.90036 -10.32623,36.95842 -24.89016,55.07446 -10.21127,12.70176 -14.36348,21.16736 -17.17315,35.01297 l -0.32382,1.59576 -0.55817,17.41484 -121.85721,0.0455 -0.498151,-17.46032 z"
       id="path1"
       sodipodi:nodetypes="csssscccsssscccssssssssssccccs" /></g></svg>
