<?xml version="1.0" encoding="UTF-8" standalone="no"?>
<!-- Created with Inkscape (http://www.inkscape.org/) -->

<svg
   width="210mm"
   height="297mm"
   viewBox="0 0 210 297"
   version="1.1"
   id="svg1"
   xml:space="preserve"
   inkscape:version="1.4 (e7c3feb1, 2024-10-09)"
   sodipodi:docname="on-with.svg"
   xmlns:inkscape="http://www.inkscape.org/namespaces/inkscape"
   xmlns:sodipodi="http://sodipodi.sourceforge.net/DTD/sodipodi-0.dtd"
   xmlns="http://www.w3.org/2000/svg"
   xmlns:svg="http://www.w3.org/2000/svg"><sodipodi:namedview
     id="namedview1"
     pagecolor="#ffffff"
     bordercolor="#000000"
     borderopacity="0.25"
     inkscape:showpageshadow="2"
     inkscape:pageopacity="0.0"
     inkscape:pagecheckerboard="0"
     inkscape:deskcolor="#d1d1d1"
     inkscape:document-units="mm"
     inkscape:zoom="0.85184373"
     inkscape:cx="387.395"
     inkscape:cy="607.50579"
     inkscape:window-width="2560"
     inkscape:window-height="1440"
     inkscape:window-x="0"
     inkscape:window-y="0"
     inkscape:window-maximized="0"
     inkscape:current-layer="layer1" /><defs
     id="defs1" /><g
     inkscape:label="Layer 1"
     inkscape:groupmode="layer"
     id="layer1"><path
       style="fill:#000000;stroke-width:1.76956"
       d="m 102.53756,183.04736 c -7.235675,-0.67558 -14.022235,-4.76233 -18.502355,-11.1418 -1.678393,-2.38993 -3.498205,-6.51687 -3.956188,-8.97175 -0.219174,-1.17481 -0.467621,-1.41705 -2.605607,-2.54052 -4.4666,-2.34715 -7.544054,-6.71305 -8.265689,-11.72634 -0.191693,-1.33172 -0.351615,-5.55614 -0.355384,-9.38758 -0.0076,-7.65479 -0.383442,-10.49459 -2.034951,-15.37277 -1.871758,-5.52877 -4.201149,-9.50756 -8.691169,-14.84527 -6.931057,-8.23959 -11.581406,-17.715529 -13.852789,-28.227559 -1.062953,-4.91938 -1.330787,-15.71673 -0.526778,-21.23621 0.719319,-4.938106 1.623499,-8.553456 3.200777,-12.798316 5.481842,-14.75304 16.504273,-26.92198 30.718522,-33.91373 4.855696,-2.388452 9.902999,-4.1255254 15.219623,-5.2379964 3.38135,-0.707524 4.748281,-0.795277 12.279468,-0.788269 7.50803,0.0071 8.8888,0.09786 12.10652,0.79602 8.21571,1.782834 17.41226,5.7649154 23.86715,10.3344154 4.96024,3.51145 12.06937,10.78927 15.30218,15.66534 7.31097,11.02711 10.64149,21.83009 10.66402,34.590026 0.0274,15.55403 -4.45068,27.74455 -15.07676,41.042539 -5.20563,6.51459 -7.77825,11.3745 -9.57905,18.09581 -0.5773,2.1547 -0.7455,4.27883 -0.97317,12.29012 -0.15944,5.61094 -0.44793,10.26726 -0.68574,11.06882 -1.22006,4.11227 -4.36323,7.8714 -8.20181,9.80911 -1.87445,0.94622 -2.11484,1.19003 -2.3346,2.36792 -0.46053,2.46836 -2.27669,6.59083 -3.9589,8.98619 -5.57952,7.94497 -14.28239,12.02648 -23.75732,11.1418 z m 7.09273,-10.64977 c 4.08467,-1.27129 7.41204,-4.12526 9.4072,-8.06878 0.55071,-1.08849 1.00128,-2.06134 1.00128,-2.16189 0,-0.10051 -6.69318,-0.18281 -14.87373,-0.18281 -8.180546,0 -14.873722,0.0823 -14.873722,0.18281 0,0.64582 2.237698,4.40748 3.417194,5.74446 3.900133,4.42084 10.319908,6.22971 15.921778,4.48621 z m 18.97268,-21.13454 c 1.99507,-1.21639 2.50186,-2.49476 2.50333,-6.31454 l 0.001,-3.37253 H 105.16504 79.222502 l 0.0013,3.37253 c 0.0015,3.81978 0.508254,5.09815 2.503324,6.31454 1.094139,0.66711 1.78435,0.68736 23.437924,0.68736 21.65357,0 22.34379,-0.0202 23.43793,-0.68736 z m 3.00427,-20.84236 c 0.0918,-0.42806 0.42344,-2.09718 0.73692,-3.70914 0.69577,-3.57777 2.54275,-8.97411 4.19335,-12.25176 1.88584,-3.74478 3.76483,-6.56458 7.48065,-11.22621 4.2605,-5.344959 6.10414,-8.187019 8.19516,-12.633169 3.33766,-7.09692 4.83756,-13.96108 4.8357,-22.1303 -0.002,-11.18546 -3.22297,-21.138636 -9.898,-30.590846 -2.4478,-3.46622 -8.80316,-9.59913 -12.56352,-12.12376 -5.94197,-3.98934 -12.35179,-6.66384 -19.73723,-8.23537 -4.25768,-0.90598 -15.911995,-0.90548 -20.062245,8.5e-4 -4.663754,1.01847 -8.184623,2.22089 -12.297367,4.19967 -14.680252,7.06317 -24.821475,20.09706 -28.394173,36.493306 -0.911427,4.18282 -0.921218,16.16581 -0.01663,20.40813 1.947853,9.13538 5.762675,16.80647 12.226516,24.585829 3.641428,4.38254 5.654736,7.46191 7.709481,11.79173 1.978344,4.16882 3.220115,7.84399 3.98974,11.80811 0.302689,1.55905 0.625468,3.18487 0.717287,3.61293 l 0.16694,0.77827 h 26.275261 26.27526 z m 7.21343,-57.664909 c -1.62524,-0.99096 -2.15609,-2.34866 -2.54123,-6.49939 -0.74391,-8.01672 -3.54766,-14.035656 -9.14592,-19.633916 -5.62867,-5.62865 -11.5133,-8.38218 -19.50934,-9.12876 -4.38233,-0.40918 -5.67006,-0.93583 -6.73135,-2.75301 -1.346348,-2.30527 -0.51446,-5.38807 1.82222,-6.75278 2.86438,-1.67289 12.98337,-0.043 19.92322,3.20917 4.45763,2.08892 7.69961,4.41251 11.60387,8.31679 5.31859,5.31859 8.61189,10.7798 10.51575,17.438126 1.6742,5.85515 2.13975,11.9538 1.07039,14.02176 -1.2043,2.32884 -4.66673,3.20932 -7.00761,1.78201 z M 20.848624,112.8681 c -11.4413815,-6.97588 20.439155,-25.915488 14.42724,-9.79608 -0.48476,1.29976 -8.505745,9.39091 -9.916261,10.003 -1.555001,0.67479 -3.187691,0.5999 -4.510979,-0.20692 z m 164.046496,0.1929 c -1.37448,-0.62248 -9.37714,-8.74556 -9.84089,-9.98898 -1.57106,-4.212389 2.93591,-8.378059 6.83144,-6.314129 1.39615,0.73971 9.31866,8.868779 9.73725,9.991119 1.57303,4.21772 -2.6349,8.16557 -6.7278,6.31199 z M 20.93826,78.663651 c -2.633905,-0.67857 -3.97527,-2.32664 -3.97527,-4.88418 0,-1.9006 0.930154,-3.54187 2.489896,-4.39344 0.980659,-0.53541 2.03136,-0.62212 7.538633,-0.62212 5.507274,0 6.557975,0.0867 7.538634,0.62212 3.326873,1.81637 3.326873,6.99007 0,8.77668 -0.937395,0.5034 -2.151635,0.62579 -6.846832,0.69011 -3.139048,0.043 -6.174324,-0.0421 -6.745061,-0.18917 z m 156.34705,0 c -2.63391,-0.67857 -3.97527,-2.32664 -3.97527,-4.88418 0,-1.9006 0.93015,-3.54187 2.4899,-4.39344 0.98065,-0.53541 2.03137,-0.62212 7.53863,-0.62212 5.50727,0 6.55798,0.0867 7.53864,0.62212 3.32686,1.81637 3.32686,6.99007 0,8.77668 -0.93741,0.5034 -2.15165,0.62579 -6.84684,0.69011 -3.13905,0.043 -6.17433,-0.0421 -6.74506,-0.18917 z M 28.548072,50.798915 c -1.374484,-0.62248 -9.37715,-8.74557 -9.840898,-9.98899 -1.571058,-4.21239 2.935918,-8.37806 6.831446,-6.31413 1.396146,0.73971 9.318653,8.86878 9.737244,9.99112 1.573042,4.21772 -2.634897,8.16558 -6.727792,6.312 z m 148.647608,-0.1929 c -2.15016,-1.31097 -3.01404,-3.77947 -2.14145,-6.1191 0.41859,-1.12234 8.34109,-9.25141 9.73724,-9.99112 3.89553,-2.06393 8.4025,2.10174 6.83145,6.31413 -0.48477,1.29976 -8.50575,9.39091 -9.91627,10.003 -1.55499,0.67479 -3.18769,0.5999 -4.51097,-0.20691 z"
       id="path1"
       sodipodi:nodetypes="ssssscsssssssccsccsssssscsssssssssccccsssssssssscsssssscsssscccsscssssssscsssssssssscssscssccsssssscsssssssssss" /></g></svg>
