<?xml version="1.0" encoding="UTF-8" standalone="no"?>
<!-- Created with Inkscape (http://www.inkscape.org/) -->

<svg
   width="210mm"
   height="297mm"
   viewBox="0 0 210 297"
   version="1.1"
   id="svg1"
   xml:space="preserve"
   inkscape:version="1.4 (e7c3feb1, 2024-10-09)"
   sodipodi:docname="on_black.svg"
   xmlns:inkscape="http://www.inkscape.org/namespaces/inkscape"
   xmlns:sodipodi="http://sodipodi.sourceforge.net/DTD/sodipodi-0.dtd"
   xmlns="http://www.w3.org/2000/svg"
   xmlns:svg="http://www.w3.org/2000/svg"><sodipodi:namedview
     id="namedview1"
     pagecolor="#ffffff"
     bordercolor="#000000"
     borderopacity="0.25"
     inkscape:showpageshadow="2"
     inkscape:pageopacity="0.0"
     inkscape:pagecheckerboard="0"
     inkscape:deskcolor="#d1d1d1"
     inkscape:document-units="mm"
     inkscape:zoom="0.90754168"
     inkscape:cx="510.16941"
     inkscape:cy="269.96005"
     inkscape:window-width="2560"
     inkscape:window-height="1387"
     inkscape:window-x="0"
     inkscape:window-y="25"
     inkscape:window-maximized="0"
     inkscape:current-layer="layer1" /><defs
     id="defs1" /><g
     inkscape:label="Layer 1"
     inkscape:groupmode="layer"
     id="layer1"><path
       style="fill:#000000;stroke-width:2.97601;fill-opacity:1"
       d="m 100.9159,296.64612 c -12.168802,-1.13617 -23.582288,-8.00918 -31.116854,-18.73803 -2.822684,-4.01933 -5.883203,-10.95993 -6.653429,-15.08849 -0.368602,-1.97577 -0.786434,-2.38316 -4.382052,-4.27259 -7.511828,-3.94738 -12.687422,-11.28986 -13.901052,-19.7211 -0.322385,-2.23966 -0.591338,-9.34419 -0.597676,-15.78782 -0.01278,-12.87366 -0.644865,-17.64957 -3.422336,-25.85358 C 37.69462,187.88634 33.777102,181.1949 26.225887,172.21806 14.569389,158.36091 6.7485355,142.42448 2.9285741,124.74559 1.1409234,116.47228 0.69048612,98.313539 2.0426506,89.031 3.2523853,80.726203 4.7730151,74.645988 7.4256461,67.507077 16.644886,42.695743 35.182165,22.23029 59.087373,10.471721 67.253575,6.454876 75.742016,3.5335046 84.683396,1.6625756 90.370076,0.47267744 92.66895,0.32509639 105.33474,0.33688229 c 12.62683,0.0119406 14.94898,0.16457877 20.36047,1.33872881 13.817,2.9983305 29.28355,9.6953069 40.13924,17.3801889 8.34202,5.905479 20.298,18.145154 25.73487,26.34562 12.29542,18.545149 17.89662,36.71336 17.93451,58.17274 0.0461,26.15842 -7.48506,46.66016 -25.35576,69.02442 -8.75471,10.95609 -13.08129,19.12938 -16.10983,30.43313 -0.97089,3.62373 -1.25377,7.19604 -1.63666,20.66925 -0.26814,9.43636 -0.75332,17.26725 -1.15326,18.6153 -2.05187,6.91592 -7.33798,13.23794 -13.79362,16.49674 -3.15241,1.59133 -3.55669,2.00137 -3.92628,3.98231 -0.77451,4.15124 -3.82889,11.08432 -6.65799,15.11278 -9.38351,13.36167 -24.01981,20.22587 -39.95453,18.73803 z m 11.92839,-17.91055 c 6.86951,-2.13802 12.46541,-6.93777 15.82082,-13.56989 0.92618,-1.8306 1.68393,-3.46672 1.68393,-3.63582 0,-0.16903 -11.25644,-0.30744 -25.0143,-0.30744 -13.757868,0 -25.014302,0.13841 -25.014302,0.30744 0,1.08613 3.763311,7.4124 5.746961,9.66091 6.559157,7.43487 17.355791,10.47698 26.776891,7.5448 z m 31.90783,-35.54359 c 3.35527,-2.0457 4.20758,-4.19564 4.21005,-10.61966 l 0.002,-5.67184 H 105.33474 61.705149 l 0.0022,5.67184 c 0.0025,6.42402 0.85477,8.57396 4.210034,10.61966 1.840099,1.12193 3.00088,1.15598 39.417377,1.15598 36.41649,0 37.57729,-0.034 39.41739,-1.15598 z m 5.05252,-35.05222 c 0.15439,-0.7199 0.71213,-3.52699 1.23933,-6.23795 1.17014,-6.01702 4.27635,-15.09246 7.05229,-20.60474 3.17156,-6.29789 6.3316,-11.04016 12.58078,-18.87998 7.16522,-8.98904 10.26581,-13.76875 13.78244,-21.24619 5.61321,-11.93544 8.1357,-23.47943 8.13258,-37.21824 C 192.58869,85.1412 187.17174,68.40217 175.94582,52.505653 171.82916,46.676242 161.14086,36.36205 154.81677,32.116183 144.8237,25.407 134.04381,20.909086 121.62314,18.266121 114.46267,16.742464 94.862698,16.743305 87.8829,18.267551 80.039502,19.980391 74.118183,22.002594 67.201461,25.330462 42.51254,37.209145 25.457257,59.129251 19.448773,86.704093 c -1.532818,7.034573 -1.549284,27.187297 -0.02797,34.321937 3.275856,15.36368 9.691539,28.26475 20.562283,41.3479 6.124072,7.37046 9.510009,12.54927 12.965633,19.83107 3.327135,7.01102 5.415518,13.19184 6.709856,19.85861 0.509056,2.62198 1.051898,5.35625 1.206317,6.07615 l 0.280756,1.30888 h 44.189152 44.18915 z m 12.13139,-96.97956 c -2.7333,-1.66657 -3.62607,-3.94992 -4.27379,-10.93053 -1.25109,-13.482339 -5.96637,-23.604852 -15.3814,-33.019881 -9.46618,-9.466138 -19.36282,-14.096964 -32.81038,-15.352545 -7.3701,-0.68815 -9.535781,-1.573858 -11.320635,-4.629951 -2.264258,-3.876952 -0.865208,-9.061536 3.064575,-11.356675 4.81725,-2.813429 21.83514,-0.07232 33.50642,5.39711 7.49675,3.5131 12.94904,7.420862 19.51514,13.986993 8.94468,8.944686 14.48328,18.129228 17.68515,29.327052 2.81563,9.847061 3.59858,20.103637 1.80015,23.581487 -2.02536,3.91659 -7.84839,5.39736 -11.78523,2.99694 z"
       id="path1"
       sodipodi:nodetypes="ssssscsssssssccsccsssssscsssssssssccccsssssssssscsssssscsssscccsscssssssscs" /></g></svg>
